# Blender 4.0.1
# www.blender.org
mtllib asteroid2.mtl
g asteroid_01.008_Mesh
v -0.008769 0.658518 -0.772266
v -0.008769 -0.032857 -0.963190
v -0.008769 -0.591835 -0.622774
v 0.526696 0.691570 -0.587796
v 0.570304 -0.032857 -0.631404
v 0.403343 -0.602790 -0.464443
v 0.862828 0.792836 -0.052331
v 0.907736 -0.032857 -0.052331
v 0.696018 -0.710816 -0.052331
v 0.612387 0.798895 0.568824
v 0.766438 -0.032857 0.722875
v 0.554545 -0.792165 0.510982
v -0.008769 -0.856295 -0.052331
v -0.008769 0.683469 0.695776
v -0.008769 -0.032857 1.054346
v -0.008769 -0.767707 0.716691
v -0.008769 1.186229 -0.052331
v -0.541055 0.687589 0.479955
v -0.822942 -0.032857 0.761842
v -0.523209 -0.730952 0.462109
v -0.785490 0.708810 -0.052331
v -1.047539 -0.032857 -0.052331
v -0.630548 -0.637301 -0.052331
v -0.519653 0.660784 -0.563215
v -0.602076 -0.032857 -0.645639
v -0.377174 -0.548049 -0.420737
vn -0.0698 -0.9776 -0.1985
vn -0.0515 -0.7016 -0.7107
vn 0.4413 -0.6316 -0.6374
vn -0.0208 0.4969 -0.8675
vn 0.6724 -0.1411 -0.7266
vn 0.0129 -0.1241 -0.9922
vn -0.0711 0.9964 -0.0452
vn 0.5285 0.4551 -0.7166
vn 0.7083 -0.6660 -0.2339
vn 0.9814 -0.1060 -0.1602
vn 0.8500 0.5166 -0.1034
vn 0.5210 -0.7416 0.4226
vn 0.5164 0.5817 0.6285
vn 0.7560 -0.0335 0.6538
vn -0.0598 -0.7474 0.6617
vn -0.0767 0.5975 0.7982
vn 0.0115 0.0054 0.9999
vn -0.5451 0.6285 0.5548
vn -0.5485 -0.7601 0.3483
vn -0.7380 -0.0303 0.6741
vn -0.6450 -0.7302 -0.2255
vn -0.8141 0.5783 -0.0534
vn -0.9838 -0.0986 -0.1499
vn -0.6498 -0.1437 -0.7464
vn -0.4647 -0.6829 -0.5636
vn -0.5767 0.4845 -0.6577
vt 0.463138 0.557084
vt 0.615422 0.639590
vt 0.526216 0.723501
vt 0.653944 0.154379
vt 0.477455 0.306663
vt 0.477455 0.128251
vt 0.346056 0.154379
vt 0.346056 0.280535
vt 0.002095 0.754865
vt 0.154379 0.718702
vt 0.091301 0.838776
vt 0.400060 0.723501
vt 0.653944 0.280535
vt 0.522545 0.432819
vt 0.373932 0.838776
vt 0.217457 0.838776
vt 0.310854 0.639590
vt 0.927500 0.589294
vt 0.751012 0.741578
vt 0.751012 0.563166
vt 0.796101 0.437010
vt 0.920897 0.455485
vt 0.306663 0.754865
vt 0.310854 0.520922
vt 0.658099 0.760053
vt 0.619613 0.589294
vt 0.165377 0.002095
vt 0.033978 0.154379
vt 0.002095 0.065174
vt 0.306663 0.636197
vt 0.217457 0.552285
vt 0.400060 0.437010
vt 0.210466 0.128252
vt 0.341866 0.280535
vt 0.210466 0.306663
vt 0.033978 0.280535
vt 0.002095 0.369741
vt 0.091301 0.552285
vt 0.526216 0.437010
vt 0.065174 0.437010
vt 0.243585 0.437010
vt 0.741710 0.325138
vt 0.866506 0.128252
vt 0.866505 0.306663
vt 0.002096 0.636197
vt 0.615422 0.520922
vt 0.696621 0.020571
vt 0.690017 0.154379
vt 0.959419 0.325138
vt 0.522545 0.002095
vt 0.685826 0.369741
vt 0.552344 0.838776
vt 0.875808 0.760053
vt 0.341866 0.154379
vt 0.165377 0.432819
vt 0.821416 0.002095
vt 0.997905 0.154379
vt 0.685826 0.065174
s 1
g off
g asteroid_01.008_asteroid.001
usemtl asteroid.001
f 13/1/1 3/2/2 6/3/3
f 1/4/4 5/5/5 2/6/6
f 3/7/2 5/5/5 6/8/3
f 1/9/4 17/10/7 4/11/8
f 13/1/1 6/3/3 9/12/9
f 4/13/8 8/14/10 5/5/5
f 6/3/3 8/15/10 9/12/9
f 4/11/8 17/10/7 7/16/11
f 13/1/1 9/12/9 12/17/12
f 8/18/10 10/19/13 11/20/14
f 8/18/10 12/21/12 9/22/9
f 7/16/11 17/10/7 10/23/13
f 13/1/1 12/17/12 16/24/15
f 11/20/14 14/25/16 15/26/17
f 11/27/14 16/28/15 12/29/12
f 10/23/13 17/10/7 14/30/16
f 14/30/16 17/10/7 18/31/18
f 13/1/1 16/24/15 20/32/19
f 15/33/17 18/34/18 19/35/20
f 15/33/17 20/36/19 16/28/15
f 19/35/20 23/37/21 20/36/19
f 18/31/18 17/10/7 21/38/22
f 13/1/1 20/32/19 23/39/21
f 18/31/18 22/40/23 19/41/20
f 23/42/21 25/43/24 26/44/25
f 21/38/22 17/10/7 24/45/26
f 13/1/1 23/39/21 26/46/25
f 21/47/22 25/43/24 22/48/23
f 25/43/24 3/49/2 26/44/25
f 24/45/26 17/10/7 1/9/4
f 13/1/1 26/46/25 3/2/2
f 25/50/24 1/4/4 2/6/6
f 1/4/4 4/13/8 5/5/5
f 3/7/2 2/6/6 5/5/5
f 4/13/8 7/51/11 8/14/10
f 6/3/3 5/52/5 8/15/10
f 8/18/10 7/53/11 10/19/13
f 8/18/10 11/20/14 12/21/12
f 11/20/14 10/19/13 14/25/16
f 11/27/14 15/33/17 16/28/15
f 15/33/17 14/54/16 18/34/18
f 15/33/17 19/35/20 20/36/19
f 19/35/20 22/55/23 23/37/21
f 18/31/18 21/38/22 22/40/23
f 23/42/21 22/48/23 25/43/24
f 21/47/22 24/56/26 25/43/24
f 25/43/24 2/57/6 3/49/2
f 25/50/24 24/58/26 1/4/4
