# Blender 4.0.1
# www.blender.org
mtllib asteroid4.mtl
g asteroid_01.006_Mesh
v -0.028429 0.951147 -1.199907
v -0.028429 0.011165 -1.689443
v -0.028429 -0.864475 -1.139639
v 0.955509 1.193141 -1.019016
v 1.066136 0.011165 -1.129643
v 0.948796 -1.160676 -1.012303
v 1.338942 1.167378 -0.035078
v 1.752956 0.011165 -0.035078
v 1.219390 -1.017415 -0.035077
v 0.932188 1.157932 0.925539
v 1.220693 0.011165 1.214044
v 0.926638 -1.127221 0.919990
v -0.028429 -1.338124 -0.035077
v -0.028429 0.942580 1.121727
v -0.028429 0.011166 1.750183
v -0.028429 -0.967925 1.166385
v -0.028429 1.371723 -0.035078
v -0.980509 1.145043 0.917003
v -1.303395 0.011165 1.239889
v -1.001367 -1.154203 0.937860
v -1.078112 0.828218 -0.035078
v -1.762050 0.011165 -0.035078
v -1.293503 -1.035836 -0.035077
v -0.769056 0.825787 -0.775705
v -1.118221 0.011165 -1.124870
v -0.882121 -0.974164 -0.888770
vn -0.0204 -0.9986 -0.0491
vn -0.0709 -0.6468 -0.7593
vn 0.4699 -0.6585 -0.5878
vn -0.1717 0.6577 -0.7334
vn 0.6545 -0.0283 -0.7555
vn -0.0130 -0.0249 -0.9996
vn -0.1445 0.9885 -0.0443
vn 0.4490 0.6459 -0.6174
vn 0.7267 -0.6867 -0.0185
vn 0.7171 0.6968 -0.0170
vn 0.9957 -0.0604 -0.0707
vn 0.4689 -0.7201 0.5114
vn 0.3945 0.7091 0.5844
vn 0.6820 -0.0120 0.7312
vn 0.0146 -0.6992 0.7148
vn -0.0000 0.6935 0.7204
vn 0.0110 0.0249 0.9996
vn -0.5268 0.7320 0.4321
vn -0.4564 -0.7267 0.5135
vn -0.7175 0.0470 0.6950
vn -0.7065 -0.6996 -0.1068
vn -0.7015 0.6936 -0.1634
vn -0.9892 0.1213 -0.0827
vn -0.6809 0.0830 -0.7276
vn -0.4422 -0.6637 -0.6033
vn -0.5646 0.6825 -0.4641
vt 0.463138 0.557084
vt 0.615422 0.639590
vt 0.526216 0.723501
vt 0.653944 0.154379
vt 0.477455 0.306663
vt 0.477455 0.128251
vt 0.346056 0.154379
vt 0.346056 0.280535
vt 0.002095 0.754865
vt 0.154379 0.718702
vt 0.091301 0.838776
vt 0.400060 0.723501
vt 0.685826 0.369741
vt 0.522545 0.432819
vt 0.552344 0.838776
vt 0.217457 0.838776
vt 0.310854 0.639590
vt 0.927500 0.589294
vt 0.751012 0.741578
vt 0.751012 0.563166
vt 0.920897 0.455485
vt 0.796101 0.437010
vt 0.306663 0.754865
vt 0.310854 0.520922
vt 0.658099 0.760053
vt 0.619613 0.589294
vt 0.165377 0.002095
vt 0.033978 0.154379
vt 0.002095 0.065174
vt 0.306663 0.636197
vt 0.217457 0.552285
vt 0.400060 0.437010
vt 0.341866 0.154379
vt 0.210466 0.306663
vt 0.210466 0.128252
vt 0.033978 0.280535
vt 0.002095 0.369741
vt 0.091301 0.552285
vt 0.526216 0.437010
vt 0.243585 0.437010
vt 0.065174 0.437010
vt 0.741710 0.325138
vt 0.866506 0.128252
vt 0.866505 0.306663
vt 0.002096 0.636197
vt 0.615422 0.520922
vt 0.696621 0.020571
vt 0.690017 0.154379
vt 0.959419 0.325138
vt 0.685826 0.065174
vt 0.522545 0.002095
vt 0.653944 0.280535
vt 0.373932 0.838776
vt 0.875808 0.760053
vt 0.341866 0.280535
vt 0.165377 0.432819
vt 0.821416 0.002095
vt 0.997905 0.154379
s 1
g off
g asteroid_01.006_asteroid.001
usemtl asteroid.001
f 13/1/1 3/2/2 6/3/3
f 1/4/4 5/5/5 2/6/6
f 3/7/2 5/5/5 6/8/3
f 1/9/4 17/10/7 4/11/8
f 13/1/1 6/3/3 9/12/9
f 5/5/5 7/13/10 8/14/11
f 5/15/5 9/12/9 6/3/3
f 4/11/8 17/10/7 7/16/10
f 13/1/1 9/12/9 12/17/12
f 8/18/11 10/19/13 11/20/14
f 9/21/9 11/20/14 12/22/12
f 7/16/10 17/10/7 10/23/13
f 13/1/1 12/17/12 16/24/15
f 11/20/14 14/25/16 15/26/17
f 11/27/14 16/28/15 12/29/12
f 10/23/13 17/10/7 14/30/16
f 14/30/16 17/10/7 18/31/18
f 13/1/1 16/24/15 20/32/19
f 14/33/16 19/34/20 15/35/17
f 16/28/15 19/34/20 20/36/19
f 19/34/20 23/37/21 20/36/19
f 18/31/18 17/10/7 21/38/22
f 13/1/1 20/32/19 23/39/21
f 19/40/20 21/38/22 22/41/23
f 23/42/21 25/43/24 26/44/25
f 21/38/22 17/10/7 24/45/26
f 13/1/1 23/39/21 26/46/25
f 21/47/22 25/43/24 22/48/23
f 25/43/24 3/49/2 26/44/25
f 24/45/26 17/10/7 1/9/4
f 13/1/1 26/46/25 3/2/2
f 24/50/26 2/6/6 25/51/24
f 1/4/4 4/52/8 5/5/5
f 3/7/2 2/6/6 5/5/5
f 5/5/5 4/52/8 7/13/10
f 5/15/5 8/53/11 9/12/9
f 8/18/11 7/54/10 10/19/13
f 9/21/9 8/18/11 11/20/14
f 11/20/14 10/19/13 14/25/16
f 11/27/14 15/35/17 16/28/15
f 14/33/16 18/55/18 19/34/20
f 16/28/15 15/35/17 19/34/20
f 19/34/20 22/56/23 23/37/21
f 19/40/20 18/31/18 21/38/22
f 23/42/21 22/48/23 25/43/24
f 21/47/22 24/57/26 25/43/24
f 25/43/24 2/58/6 3/49/2
f 24/50/26 1/4/4 2/6/6
