# Blender 4.0.2
# www.blender.org
mtllib asteroid1.mtl
o asteroid_01.009
v 0.014525 0.377379 -0.399982
v 0.014525 0.005212 -0.442366
v 0.014525 -0.447783 -0.491247
v 0.353809 0.387416 -0.382276
v 0.393539 0.005212 -0.393538
v 0.488743 -0.619523 -0.488742
v 0.399983 0.377379 -0.014524
v 0.442367 0.005212 -0.014524
v 0.491248 -0.447783 -0.014524
v 0.384745 0.499692 0.355697
v 0.479743 0.005212 0.450695
v 0.318500 -0.406298 0.289451
v 0.014525 -0.882803 -0.014524
v 0.014525 0.458207 0.462200
v 0.014525 0.005212 0.873491
v 0.014525 -0.528612 0.553465
v 0.014525 0.433054 -0.014524
v -0.185452 0.286468 0.185453
v -0.536899 0.005212 0.536900
v -0.222393 -0.322311 0.222394
v -0.462199 0.458207 -0.014524
v -0.873490 0.005212 -0.014524
v -0.553464 -0.528612 -0.014524
v -0.355696 0.499693 -0.384744
v -0.450694 0.005212 -0.479743
v -0.289451 -0.406299 -0.318499
vn -0.0780 -0.9939 0.0780
vn -0.1857 -0.3329 -0.9245
vn 0.6217 -0.4764 -0.6217
vn 0.0123 0.0530 -0.9985
vn 0.1282 0.6432 -0.7549
vn 0.5373 0.6103 -0.5821
vn 0.7003 0.1514 -0.6976
vn -0.0201 0.9996 0.0205
vn 0.9245 -0.3329 0.1857
vn 0.7536 0.6416 -0.1428
vn 0.9979 0.0615 -0.0206
vn 0.7629 -0.4744 0.4392
vn 0.5935 0.7703 0.2334
vn 0.8758 0.0111 0.4825
vn -0.0319 -0.7428 0.6688
vn -0.1514 0.8741 0.4616
vn -0.0493 0.0210 0.9986
vn -0.4217 0.8027 0.4217
vn -0.5814 -0.5691 0.5814
vn -0.7053 0.0721 0.7053
vn -0.9986 0.0210 0.0493
vn -0.6688 -0.7428 0.0319
vn -0.4616 0.8741 0.1514
vn -0.4825 0.0111 -0.8758
vn -0.4392 -0.4744 -0.7629
vn -0.2334 0.7703 -0.5935
vt 0.463138 0.557084
vt 0.615422 0.639590
vt 0.526216 0.723501
vt 0.477455 0.128251
vt 0.653944 0.154379
vt 0.653944 0.280535
vt 0.477455 0.306663
vt 0.346056 0.154379
vt 0.346056 0.280535
vt 0.002095 0.754865
vt 0.154379 0.718702
vt 0.091301 0.838776
vt 0.400060 0.723501
vt 0.685826 0.369741
vt 0.522545 0.432819
vt 0.552344 0.838776
vt 0.373932 0.838776
vt 0.217457 0.838776
vt 0.310854 0.639590
vt 0.927500 0.589294
vt 0.875808 0.760053
vt 0.751012 0.741578
vt 0.751012 0.563166
vt 0.920897 0.455485
vt 0.796101 0.437010
vt 0.306663 0.754865
vt 0.310854 0.520922
vt 0.658099 0.760053
vt 0.619613 0.589294
vt 0.002095 0.065174
vt 0.165377 0.002095
vt 0.210466 0.128252
vt 0.033978 0.154379
vt 0.306663 0.636197
vt 0.217457 0.552285
vt 0.400060 0.437010
vt 0.341866 0.154379
vt 0.341866 0.280535
vt 0.210466 0.306663
vt 0.033978 0.280535
vt 0.165377 0.432819
vt 0.002095 0.369741
vt 0.091301 0.552285
vt 0.526216 0.437010
vt 0.243585 0.437010
vt 0.065174 0.437010
vt 0.741710 0.325138
vt 0.690017 0.154379
vt 0.866506 0.128252
vt 0.866505 0.306663
vt 0.002096 0.636197
vt 0.615422 0.520922
vt 0.696621 0.020571
vt 0.821416 0.002095
vt 0.997905 0.154379
vt 0.959419 0.325138
vt 0.522545 0.002095
vt 0.685826 0.065174
s 1
usemtl asteroid.001
f 13/1/1 3/2/2 6/3/3
f 2/4/4 1/5/5 4/6/6 5/7/7
f 3/8/2 2/4/4 5/7/7 6/9/3
f 1/10/5 17/11/8 4/12/6
f 13/1/1 6/3/3 9/13/9
f 5/7/7 4/6/6 7/14/10 8/15/11
f 6/3/3 5/16/7 8/17/11 9/13/9
f 4/12/6 17/11/8 7/18/10
f 13/1/1 9/13/9 12/19/12
f 8/20/11 7/21/10 10/22/13 11/23/14
f 9/24/9 8/20/11 11/23/14 12/25/12
f 7/18/10 17/11/8 10/26/13
f 13/1/1 12/19/12 16/27/15
f 11/23/14 10/22/13 14/28/16 15/29/17
f 12/30/12 11/31/14 15/32/17 16/33/15
f 10/26/13 17/11/8 14/34/16
f 14/34/16 17/11/8 18/35/18
f 13/1/1 16/27/15 20/36/19
f 15/32/17 14/37/16 18/38/18 19/39/20
f 16/33/15 15/32/17 19/39/20 20/40/19
f 20/40/19 19/39/20 22/41/21 23/42/22
f 18/35/18 17/11/8 21/43/23
f 13/1/1 20/36/19 23/44/22
f 19/45/20 18/35/18 21/43/23 22/46/21
f 23/47/22 22/48/21 25/49/24 26/50/25
f 21/43/23 17/11/8 24/51/26
f 13/1/1 23/44/22 26/52/25
f 22/48/21 21/53/23 24/54/26 25/49/24
f 26/50/25 25/49/24 2/55/4 3/56/2
f 24/51/26 17/11/8 1/10/5
f 13/1/1 26/52/25 3/2/2
f 25/57/24 24/58/26 1/5/5 2/4/4
