# Blender 4.0.1
# www.blender.org
mtllib asteroid1.mtl
g asteroid_01.009_Mesh
v 0.014525 0.377379 -0.399983
v 0.014525 0.005212 -0.442366
v 0.014525 -0.447784 -0.491247
v 0.353809 0.387415 -0.382276
v 0.393539 0.005212 -0.393538
v 0.488743 -0.619523 -0.488742
v 0.399983 0.377379 -0.014524
v 0.442367 0.005212 -0.014524
v 0.491248 -0.447783 -0.014524
v 0.384745 0.499693 0.355697
v 0.479743 0.005212 0.450695
v 0.318500 -0.406298 0.289451
v 0.014525 -0.882803 -0.014524
v 0.014525 0.458207 0.462200
v 0.014525 0.005212 0.873491
v 0.014525 -0.528612 0.553465
v 0.014525 0.433054 -0.014524
v -0.185452 0.286468 0.185453
v -0.536899 0.005212 0.536900
v -0.222393 -0.322311 0.222394
v -0.462199 0.458207 -0.014524
v -0.873490 0.005212 -0.014524
v -0.553464 -0.528612 -0.014524
v -0.355696 0.499693 -0.384744
v -0.450694 0.005212 -0.479743
v -0.289451 -0.406299 -0.318499
vn -0.0780 -0.9939 0.0780
vn -0.2733 -0.2726 -0.9225
vn 0.6243 -0.4694 -0.6243
vn 0.0315 0.0321 -0.9990
vn 0.5372 0.6108 -0.5817
vn 0.7075 0.1358 -0.6936
vn 0.1142 0.6511 -0.7504
vn -0.0201 0.9996 0.0205
vn 0.9225 -0.2726 0.2733
vn 0.7537 0.6415 -0.1428
vn 0.9983 0.0415 -0.0404
vn 0.7721 -0.4736 0.4238
vn 0.8984 -0.0370 0.4377
vn 0.5484 0.7556 0.3582
vn -0.1427 -0.6883 0.7112
vn -0.1769 0.8736 0.4533
vn 0.0238 0.0221 0.9995
vn -0.3375 0.8787 0.3375
vn -0.5884 -0.5545 0.5884
vn -0.7059 -0.0580 0.7059
vn -0.9995 0.0221 -0.0238
vn -0.7112 -0.6883 0.1427
vn -0.4533 0.8736 0.1769
vn -0.4377 -0.0370 -0.8984
vn -0.4238 -0.4736 -0.7721
vn -0.3582 0.7556 -0.5484
vt 0.463138 0.557084
vt 0.615422 0.639590
vt 0.526216 0.723501
vt 0.477455 0.128251
vt 0.653944 0.280535
vt 0.477455 0.306663
vt 0.346056 0.154379
vt 0.346056 0.280535
vt 0.002095 0.754865
vt 0.154379 0.718702
vt 0.091301 0.838776
vt 0.400060 0.723501
vt 0.685826 0.369741
vt 0.522545 0.432819
vt 0.552344 0.838776
vt 0.217457 0.838776
vt 0.310854 0.639590
vt 0.875808 0.760053
vt 0.751012 0.563166
vt 0.927500 0.589294
vt 0.796101 0.437010
vt 0.920897 0.455485
vt 0.306663 0.754865
vt 0.310854 0.520922
vt 0.658099 0.760053
vt 0.619613 0.589294
vt 0.165377 0.002095
vt 0.033978 0.154379
vt 0.002095 0.065174
vt 0.306663 0.636197
vt 0.217457 0.552285
vt 0.400060 0.437010
vt 0.341866 0.154379
vt 0.210466 0.306663
vt 0.210466 0.128252
vt 0.033978 0.280535
vt 0.165377 0.432819
vt 0.002095 0.369741
vt 0.091301 0.552285
vt 0.526216 0.437010
vt 0.243585 0.437010
vt 0.065174 0.437010
vt 0.741710 0.325138
vt 0.866506 0.128252
vt 0.866505 0.306663
vt 0.002096 0.636197
vt 0.615422 0.520922
vt 0.696621 0.020571
vt 0.690017 0.154379
vt 0.997905 0.154379
vt 0.959419 0.325138
vt 0.522545 0.002095
vt 0.653944 0.154379
vt 0.373932 0.838776
vt 0.751012 0.741578
vt 0.341866 0.280535
vt 0.821416 0.002095
vt 0.685826 0.065174
s 1
g off
g asteroid_01.009_asteroid.001
usemtl asteroid.001
f 13/1/1 3/2/2 6/3/3
f 2/4/4 4/5/5 5/6/6
f 3/7/2 5/6/6 6/8/3
f 1/9/7 17/10/8 4/11/5
f 13/1/1 6/3/3 9/12/9
f 5/6/6 7/13/10 8/14/11
f 5/15/6 9/12/9 6/3/3
f 4/11/5 17/10/8 7/16/10
f 13/1/1 9/12/9 12/17/12
f 7/18/10 11/19/13 8/20/11
f 8/20/11 12/21/12 9/22/9
f 7/16/10 17/10/8 10/23/14
f 13/1/1 12/17/12 16/24/15
f 11/19/13 14/25/16 15/26/17
f 11/27/13 16/28/15 12/29/12
f 10/23/14 17/10/8 14/30/16
f 14/30/16 17/10/8 18/31/18
f 13/1/1 16/24/15 20/32/19
f 14/33/16 19/34/20 15/35/17
f 15/35/17 20/36/19 16/28/15
f 20/36/19 22/37/21 23/38/22
f 18/31/18 17/10/8 21/39/23
f 13/1/1 20/32/19 23/40/22
f 19/41/20 21/39/23 22/42/21
f 23/43/22 25/44/24 26/45/25
f 21/39/23 17/10/8 24/46/26
f 13/1/1 23/40/22 26/47/25
f 21/48/23 25/44/24 22/49/21
f 26/45/25 2/50/4 3/51/2
f 24/46/26 17/10/8 1/9/7
f 13/1/1 26/47/25 3/2/2
f 25/52/24 1/53/7 2/4/4
f 2/4/4 1/53/7 4/5/5
f 3/7/2 2/4/4 5/6/6
f 5/6/6 4/5/5 7/13/10
f 5/15/6 8/54/11 9/12/9
f 7/18/10 10/55/14 11/19/13
f 8/20/11 11/19/13 12/21/12
f 11/19/13 10/55/14 14/25/16
f 11/27/13 15/35/17 16/28/15
f 14/33/16 18/56/18 19/34/20
f 15/35/17 19/34/20 20/36/19
f 20/36/19 19/34/20 22/37/21
f 19/41/20 18/31/18 21/39/23
f 23/43/22 22/49/21 25/44/24
f 21/48/23 24/57/26 25/44/24
f 26/45/25 25/44/24 2/50/4
f 25/52/24 24/58/26 1/53/7
