# Blender 4.0.1
# www.blender.org
mtllib station.mtl
g Cube_Mesh
v 3.992618 1.000000 -5.790492
v 3.992618 -1.000000 -5.790492
v 3.992618 1.000000 2.209508
v 3.992618 -1.000000 2.209508
v -4.007383 1.000000 -5.790492
v -4.007383 -1.000000 -5.790492
v -4.007383 1.000000 2.209508
v -4.007383 -1.000000 2.209508
v -0.007382 -1.000000 -5.790492
v -0.007382 1.000000 2.209508
v -0.007382 -1.000000 2.209508
v -0.007382 1.000000 -5.790492
v -2.007382 -1.000000 -5.790492
v -1.082277 1.000000 2.209508
v -1.082277 -1.000000 2.209508
v -2.007382 1.000000 -5.790492
v 1.119190 -1.000000 2.209508
v 1.992617 1.000000 -5.790492
v 1.992617 -1.000000 -5.790492
v 1.119190 1.000000 2.209508
v -4.007383 -1.000000 4.468092
v -4.007383 1.000000 4.468092
v -1.082277 1.000000 4.468092
v -1.082277 -1.000000 4.468092
v 3.992618 1.000000 4.484368
v 3.992618 -1.000000 4.484368
v 1.119190 -1.000000 4.484368
v 1.119190 1.000000 4.484368
vn -0.0000 1.0000 -0.0000
vn -1.0000 -0.0000 -0.0000
vn -0.0000 -1.0000 -0.0000
vn 1.0000 -0.0000 -0.0000
vn -0.0000 -0.0000 -1.0000
vn -0.0000 -0.0000 1.0000
vt 0.100000 0.513743
vt 0.000000 0.113743
vt 0.146255 0.113743
vt 1.000000 0.400000
vt 0.900000 0.512929
vt 0.900000 0.400000
vt 1.000000 0.000000
vt 0.500000 0.513743
vt 0.400000 0.113743
vt 0.543671 0.113743
vt 0.800000 0.513743
vt 0.900000 0.113743
vt 0.900000 0.513743
vt 0.000000 0.613743
vt 0.100000 0.513743
vt 0.100000 0.613743
vt 0.000000 0.813743
vt 0.100000 0.713743
vt 0.100000 0.813743
vt 0.600000 0.513743
vt 0.653745 0.113743
vt 0.700000 0.513743
vt 0.200000 0.513743
vt 0.256329 0.113743
vt 0.300000 0.513743
vt 0.800000 0.113743
vt 0.000000 0.913743
vt 0.100000 0.913743
vt 0.200000 0.113743
vt 0.400000 0.513743
vt 0.300000 0.627486
vt 0.000000 0.713743
vt 0.600000 0.113743
vt 0.500000 0.567488
vt 0.600000 0.567488
vt 0.500000 0.623816
vt 0.100000 0.659998
vt 0.200000 0.513743
vt 0.200000 0.659998
vt 0.400000 0.626672
vt 0.500000 0.513743
vt 0.500000 0.626672
vt 0.800000 0.000814
vt 0.146255 0.000814
vt 0.200000 0.657414
vt 0.300000 0.513743
vt 0.300000 0.657414
vt 0.543671 0.000000
vt 0.400000 0.000000
vt 0.800000 0.113743
vt 0.900000 0.000000
vt 0.000000 0.513743
vt 1.000000 0.512929
vt 0.900000 0.000000
vt -0.000000 0.513743
vt 0.400000 0.627486
vt 0.600000 0.513743
vt 0.600000 0.623816
vt 0.100000 0.513743
vt 0.400000 0.513743
vt 0.653745 0.000814
vt 0.000000 0.000814
vt 0.200000 0.513743
vt 0.256329 0.000000
vt 0.800000 0.000000
s 0
g off
g Cube_Material
usemtl Material
f 16/1/1 7/2/1 14/3/1
f 8/4/2 22/5/2 7/6/2
f 7/6/2 6/7/2 8/4/2
f 19/8/3 4/9/3 17/10/3
f 1/11/4 4/12/4 2/13/4
f 18/14/5 2/15/5 19/16/5
f 16/17/5 9/18/5 13/19/5
f 9/20/3 15/21/3 13/22/3
f 12/23/1 20/24/1 18/25/1
f 13/22/3 8/26/3 6/11/3
f 5/27/5 13/19/5 6/28/5
f 12/23/1 14/3/1 10/29/1
f 18/25/1 3/9/1 1/30/1
f 17/30/2 28/31/2 20/25/2
f 12/32/5 19/16/5 9/18/5
f 9/20/3 17/10/3 11/33/3
f 10/34/6 11/35/6 20/36/6
f 23/37/6 21/38/6 24/39/6
f 14/40/4 24/41/4 15/42/4
f 15/21/3 21/43/3 8/26/3
f 7/2/1 23/44/1 14/3/1
f 25/45/6 27/46/6 26/47/6
f 4/9/3 27/48/3 17/10/3
f 20/24/1 25/49/1 3/9/1
f 3/50/4 26/51/4 4/12/4
f 16/1/1 5/52/1 7/2/1
f 8/4/2 21/53/2 22/5/2
f 7/6/2 5/54/2 6/7/2
f 19/8/3 2/30/3 4/9/3
f 1/11/4 3/50/4 4/12/4
f 18/14/5 1/55/5 2/15/5
f 16/17/5 12/32/5 9/18/5
f 9/20/3 11/33/3 15/21/3
f 12/23/1 10/29/1 20/24/1
f 13/22/3 15/21/3 8/26/3
f 5/27/5 16/17/5 13/19/5
f 12/23/1 16/1/1 14/3/1
f 18/25/1 20/24/1 3/9/1
f 17/30/2 27/56/2 28/31/2
f 12/32/5 18/14/5 19/16/5
f 9/20/3 19/8/3 17/10/3
f 10/34/6 14/41/6 15/57/6
f 11/35/6 17/58/6 20/36/6
f 10/34/6 15/57/6 11/35/6
f 23/37/6 22/59/6 21/38/6
f 14/40/4 23/60/4 24/41/4
f 15/21/3 24/61/3 21/43/3
f 7/2/1 22/62/1 23/44/1
f 25/45/6 28/63/6 27/46/6
f 4/9/3 26/49/3 27/48/3
f 20/24/1 28/64/1 25/49/1
f 3/50/4 25/65/4 26/51/4
